<svg xmlns="http://www.w3.org/2000/svg" xmlns:xlink="http://www.w3.org/1999/xlink" xmlns:serif="http://www.serif.com/" viewBox="0 0 100 125" version="1.1" xml:space="preserve" style="" x="0px" y="0px" fill-rule="evenodd" clip-rule="evenodd" stroke-linejoin="round" stroke-miterlimit="2"><g transform="matrix(1,0,0,1,-300,0)"><rect serif:id="3-parasauro" x="300" y="0" width="100" height="100" style="" fill="none"/><g serif:id="3-parasauro"><path d="M321.949,67.874L321.946,67.874C320.572,67.874 319.254,67.328 318.282,66.356C317.31,65.384 316.764,64.066 316.764,62.692C316.764,60.647 316.764,59.764 316.764,57.288C316.764,55.069 317.646,52.941 319.215,51.372C319.798,50.789 321.146,49.991 322.199,49.413C321.362,47.824 320.659,45.805 319.992,43.815C319.57,42.558 319.15,41.321 318.674,40.275C318.326,39.511 317.991,38.85 317.527,38.485C317.206,38.232 316.801,38.163 316.374,38.141C315.679,38.106 314.93,38.226 314.183,38.381C312.158,38.802 310.146,39.428 308.819,39.362C306.65,39.252 305.203,38.439 304.271,37.408C302.803,35.784 302.567,33.474 303.178,31.629C303.47,30.747 304.212,29.591 305.288,28.37C307.392,25.985 310.811,23.169 313.36,21.531C317.645,18.777 324.282,15.777 329.37,14.374C333.901,13.126 340.857,12.759 343.425,13.256C347.472,14.038 349.12,16.581 349.106,18.83C349.093,21.086 347.375,23.587 343.664,24.379C340.635,25.025 338.372,25.606 336.397,26.546C335.567,26.941 334.622,27.418 333.807,27.975C333.24,28.362 332.711,28.75 332.491,29.234C332.214,29.845 332.133,30.777 332.286,31.588C332.349,31.924 332.416,32.258 332.64,32.447C332.767,32.556 332.967,32.579 333.182,32.627C333.671,32.738 334.236,32.795 334.829,32.843C336.338,32.964 337.992,33.036 339.317,33.385C344.686,34.799 351.843,39.163 355.762,42.819C356.921,43.67 358.056,44.619 359.15,45.662C361.713,48.104 367.102,56.066 368.063,57.816C375.866,72.022 383.664,76.306 392.006,80.362C396.599,82.596 397.949,86.362 396.643,88.974C396.091,90.079 395.043,91.105 393.36,91.796C391.434,92.586 388.51,92.968 384.482,92.459C376.673,91.471 369.903,87.972 361.307,82.003C359.293,80.605 356.727,78.45 354.939,76.932C354.582,78.291 354.39,79.755 354.39,81.28C354.39,82.768 354.39,87.307 354.39,87.307C354.39,88.679 353.845,89.994 352.875,90.964C351.904,91.935 350.589,92.48 349.217,92.48L334.459,92.48C331.355,92.48 328.839,89.963 328.839,86.86C328.839,86.859 328.839,86.857 328.839,86.856C328.839,83.753 331.355,81.236 334.459,81.236L336.804,81.236C335.71,78.799 335.073,75.941 335.073,72.882C335.073,70.209 335.558,67.689 336.41,65.471C334.541,63.383 333.016,61.168 331.861,58.944L329.847,58.937L327.135,58.922C327.131,60.593 327.131,62.692 327.131,62.692C327.131,64.066 326.585,65.384 325.614,66.356C324.642,67.328 323.324,67.874 321.949,67.874ZM334.459,85.236C333.564,85.236 332.839,85.962 332.839,86.856C332.839,86.857 332.839,86.859 332.839,86.86C332.839,87.754 333.564,88.48 334.459,88.48L349.217,88.48C349.528,88.48 349.826,88.356 350.046,88.136C350.266,87.916 350.39,87.618 350.39,87.307L350.39,81.28C350.39,78.143 351.058,75.216 352.202,72.741C352.243,72.653 354.263,67.783 359.345,64.013C360.231,63.355 361.485,63.541 362.143,64.427C362.8,65.314 362.614,66.568 361.728,67.225C358.608,69.54 357.116,71.813 356.488,73.007C358.18,74.446 361.259,77.101 363.588,78.718C371.541,84.24 377.76,87.576 384.984,88.49C387.622,88.824 389.661,88.738 391.143,88.331C392.113,88.064 392.795,87.726 393.066,87.185C393.239,86.837 393.103,86.448 392.866,86.058C392.389,85.275 391.485,84.557 390.257,83.96C381.3,79.604 372.935,74.995 364.557,59.742C363.674,58.134 358.746,50.801 356.391,48.558C355.395,47.609 353.174,45.875 353.113,45.817C349.617,42.524 343.151,38.532 338.298,37.253C336.916,36.889 335.117,36.916 333.626,36.745C332.106,36.571 330.832,36.16 330.05,35.496C329.187,34.763 328.599,33.627 328.355,32.329C328.046,30.691 328.288,28.815 328.849,27.58C329.247,26.704 329.981,25.862 330.929,25.125C332.039,24.261 333.456,23.516 334.679,22.934C336.896,21.879 339.427,21.193 342.829,20.467C344.175,20.18 345.102,19.624 345.106,18.806C345.108,18.547 344.96,18.307 344.733,18.09C344.285,17.662 343.586,17.361 342.666,17.183C340.43,16.751 334.379,17.143 330.433,18.231C325.694,19.537 319.513,22.331 315.523,24.896C313.558,26.159 311.017,28.199 309.139,30.107C308.089,31.174 307.222,32.143 306.975,32.887C306.782,33.47 306.775,34.213 307.239,34.727C307.595,35.121 308.191,35.325 309.021,35.367C310.377,35.435 312.551,34.529 314.606,34.248C316.64,33.97 318.561,34.209 320.001,35.342C321.292,36.358 322.357,38.471 323.234,40.94C324.039,43.202 324.698,45.814 325.681,47.558C327.771,46.357 331.911,43.905 333.196,42.607C333.973,41.823 335.24,41.817 336.024,42.593C336.808,43.37 336.815,44.637 336.038,45.422C334.108,47.37 326.408,51.744 326.408,51.744C326.232,51.843 325.345,52.296 325.02,52.469C324.129,52.944 322.686,53.558 322.043,54.201C321.224,55.02 320.764,56.13 320.764,57.288C320.764,59.764 320.764,60.647 320.764,62.692C320.764,63.005 320.889,63.306 321.11,63.527C321.332,63.749 321.633,63.874 321.946,63.874L321.949,63.874C322.263,63.874 322.563,63.749 322.785,63.527C323.007,63.306 323.131,63.005 323.131,62.692L323.132,61.308C323.132,60.51 323.133,59.498 323.135,58.646C323.135,57.568 323.6,56.543 324.41,55.833C325.18,55.158 326.192,54.831 327.207,54.922C328.526,54.931 332.604,54.881 332.826,54.902C332.826,54.902 335.38,55.014 336.686,52.053C337.132,51.043 338.313,50.585 339.323,51.03C340.333,51.476 340.791,52.657 340.346,53.667C339.211,56.24 337.544,57.559 336.034,58.229C336.718,59.395 337.518,60.55 338.428,61.673C340.143,58.871 342.988,54.915 346.273,53.124C347.242,52.596 348.458,52.954 348.986,53.923C349.514,54.892 349.156,56.108 348.187,56.636C343.7,59.082 340.326,66.47 340.326,66.47C340.311,66.501 340.296,66.531 340.28,66.561C339.508,68.43 339.073,70.587 339.073,72.882C339.073,76.464 340.129,79.713 341.873,82.036C342.328,82.642 342.402,83.453 342.063,84.13C341.725,84.808 341.032,85.236 340.274,85.236L334.459,85.236ZM319.872,26.454C321.125,26.454 322.142,27.471 322.142,28.725C322.142,29.978 321.125,30.995 319.872,30.995C318.618,30.995 317.601,29.978 317.601,28.725C317.601,27.471 318.618,26.454 319.872,26.454Z"/></g></g></svg>