<svg xmlns="http://www.w3.org/2000/svg" xmlns:xlink="http://www.w3.org/1999/xlink" xmlns:serif="http://www.serif.com/" viewBox="0 0 100 125" version="1.1" xml:space="preserve" style="" x="0px" y="0px" fill-rule="evenodd" clip-rule="evenodd" stroke-linejoin="round" stroke-miterlimit="2"><g transform="matrix(1,0,0,1,-150,0)"><rect serif:id="2-stego" x="150" y="0" width="100" height="100" style="" fill="none"/><g serif:id="2-stego"><path d="M185.197,80.052L185.194,80.052C183.08,80.052 181.052,79.212 179.557,77.717C178.062,76.222 177.222,74.194 177.222,72.08L177.222,70.9C175.204,71.438 172.251,72.103 169.144,72.385C162.728,72.968 160.019,72.218 159.053,71.866C158.15,71.536 157.296,71.077 156.524,70.505C154.685,69.144 153.348,67.159 152.776,64.944C152.534,64.005 152.429,63.032 152.465,62.063C152.508,60.915 152.75,59.776 153.176,58.709C153.641,57.547 154.324,56.475 155.181,55.563C156.083,54.604 157.173,53.826 158.373,53.286C159.646,52.712 161.03,52.414 162.426,52.401C162.43,52.401 162.434,52.401 162.438,52.401L162.494,52.4L171.598,52.4C172.376,50.193 173.429,48.115 174.717,46.208L172.267,43.758C169.154,40.645 169.154,35.597 172.267,32.484C172.267,32.484 172.268,32.483 172.269,32.482C175.382,29.369 180.43,29.369 183.543,32.482L187.171,36.11C187.825,35.846 188.491,35.606 189.169,35.391L189.169,31.29C189.169,26.887 192.738,23.318 197.141,23.318L197.144,23.318C201.547,23.318 205.116,26.887 205.116,31.29L205.116,35.224C205.835,35.434 206.541,35.673 207.235,35.94L208.277,34.134C210.479,30.321 215.354,29.015 219.167,31.216C219.168,31.217 219.169,31.217 219.17,31.218C222.983,33.419 224.289,38.295 222.088,42.108L219.906,45.887C221.464,47.971 224.886,52.163 229.733,54.341C234.754,56.596 238.246,56.738 245.006,56.548C246.925,56.494 247.802,57.367 248.174,58.183C248.512,58.925 248.536,60.058 247.77,61.351C246.111,64.151 239.674,69.186 235.507,70.73C230.063,72.745 225.002,72.926 219.823,72.466C218.781,72.374 217.892,72.313 217.061,72.235C217.021,74.293 216.186,76.258 214.728,77.717C213.233,79.212 211.205,80.052 209.091,80.052L209.088,80.052C206.973,80.052 204.946,79.212 203.451,77.717C202.137,76.403 201.329,74.678 201.153,72.844C200.346,73.071 199.3,73.257 197.748,73.289C195.788,73.33 194.267,73.188 193.117,72.984C192.914,74.766 192.114,76.437 190.834,77.717C189.339,79.212 187.311,80.052 185.197,80.052ZM228.094,57.989C222.764,55.595 216.864,48.57 216.786,48.492C207.879,39.642 200.038,37.647 193.764,38.608C184.634,40.006 179.001,47.458 178.828,47.691L178.816,47.707C178.632,47.952 175.677,52.549 174.975,54.959C174.727,55.813 173.944,56.4 173.055,56.4C173.055,56.4 162.494,56.4 162.501,56.4C162.501,56.4 162.451,56.401 162.463,56.4C161.62,56.408 160.784,56.587 160.016,56.933C159.294,57.258 158.638,57.726 158.096,58.303C157.58,58.851 157.17,59.496 156.89,60.195C156.634,60.836 156.488,61.521 156.463,62.212C156.441,62.795 156.504,63.38 156.65,63.945C156.993,65.278 157.797,66.471 158.903,67.29C159.368,67.634 159.882,67.91 160.425,68.108C161.224,68.4 163.472,68.884 168.782,68.402C172.408,68.072 175.805,67.173 177.481,66.676L177.481,61.29C177.481,60.186 178.377,59.29 179.481,59.29C180.585,59.29 181.481,60.186 181.481,61.29L181.481,72.08C181.481,72.371 181.836,74.339 182.385,74.888C183.13,75.633 184.141,76.052 185.194,76.052L185.197,76.052C186.25,76.052 187.261,75.633 188.006,74.888C188.534,74.36 188.851,72.404 188.851,72.08C188.851,67.621 188.851,61.29 188.851,61.29C188.851,60.186 189.747,59.29 190.851,59.29C191.954,59.29 192.851,60.186 192.851,61.29L192.851,68.802C193.694,69.028 195.303,69.34 197.664,69.29C199.623,69.249 201.366,68.531 201.444,68.502L201.444,61.29C201.444,60.186 202.34,59.29 203.444,59.29C204.547,59.29 205.444,60.186 205.444,61.29L205.444,72.08C205.444,72.409 205.754,74.363 206.279,74.888C207.024,75.633 208.034,76.052 209.088,76.052L209.091,76.052C210.144,76.052 211.154,75.633 211.899,74.888C212.452,74.336 212.813,72.365 212.813,72.08C212.813,67.621 212.813,61.29 212.813,61.29C212.813,60.186 213.709,59.29 214.813,59.29C215.917,59.29 216.813,60.186 216.813,61.29L216.813,68.193C217.821,68.311 218.868,68.366 220.176,68.482C224.779,68.89 229.28,68.77 234.118,66.978C236.638,66.045 240.141,63.605 242.457,61.434C242.729,61.179 243.004,60.883 243.26,60.589C236.9,60.699 233.216,60.29 228.094,57.989ZM163.326,59.325C164.504,59.325 165.461,60.282 165.461,61.46C165.461,62.638 164.504,63.595 163.326,63.595C162.148,63.595 161.191,62.638 161.191,61.46C161.191,60.282 162.148,59.325 163.326,59.325ZM203.161,47.834C205.11,48.574 207.108,49.754 209.11,51.505C209.94,52.232 211.205,52.148 211.932,51.317C212.659,50.486 212.574,49.221 211.743,48.495C209.336,46.389 206.924,44.984 204.581,44.095C203.549,43.703 202.393,44.223 202.001,45.255C201.61,46.287 202.129,47.443 203.161,47.834ZM184.956,51.507C184.956,51.507 190.177,46.955 197.186,46.803C198.289,46.779 199.166,45.864 199.142,44.76C199.118,43.657 198.203,42.78 197.099,42.804C188.631,42.987 182.326,48.493 182.326,48.493C181.494,49.219 181.408,50.483 182.134,51.315C182.86,52.147 184.124,52.233 184.956,51.507ZM183.641,38.237L180.714,35.311C179.163,33.759 176.648,33.759 175.097,35.311C175.097,35.311 175.096,35.312 175.095,35.313C173.544,36.864 173.544,39.379 175.095,40.93L177.416,43.251C178.783,41.839 180.894,39.925 183.641,38.237ZM216.885,43.119L218.624,40.108C219.72,38.208 219.07,35.779 217.17,34.682C217.169,34.681 217.168,34.681 217.167,34.68C215.267,33.584 212.838,34.234 211.741,36.134L210.427,38.412C212.516,39.64 214.672,41.19 216.885,43.119ZM197.144,27.318L197.141,27.318C194.947,27.318 193.169,29.096 193.169,31.29L193.169,34.652C195.607,34.28 198.267,34.264 201.116,34.802L201.116,31.29C201.116,29.096 199.337,27.318 197.144,27.318Z"/></g></g></svg>