<svg xmlns="http://www.w3.org/2000/svg" xmlns:xlink="http://www.w3.org/1999/xlink" xmlns:serif="http://www.serif.com/" viewBox="0 0 100 125" version="1.1" xml:space="preserve" style="" x="0px" y="0px" fill-rule="evenodd" clip-rule="evenodd" stroke-linejoin="round" stroke-miterlimit="2"><g transform="matrix(1,0,0,1,-600,0)"><rect serif:id="5-tricera" x="600" y="0" width="100" height="100" style="" fill="none"/><g serif:id="5-tricera"><path d="M626.939,26.264C628.498,24.692 630.178,23.87 632.505,23.483C641.725,21.953 646.13,27.113 648.323,34.574C653.691,34.08 660.142,35.691 665.146,38.172C668.35,39.76 671.832,43.032 675.119,46.293C678.094,49.244 680.888,52.188 683.177,53.47C689.332,56.916 692.215,57.897 694.101,59.411C696.606,61.422 697.337,66.879 692.257,68.91C690.208,69.73 685.976,69.864 682.809,69.908C680.74,69.936 678.624,69.682 676.542,69.487L676.542,72.682C676.542,74.648 675.761,76.534 674.371,77.924C672.98,79.314 671.095,80.096 669.128,80.096L669.125,80.096C667.159,80.096 665.273,79.314 663.882,77.924C662.492,76.534 661.711,74.648 661.711,72.682L661.711,70.831C659.957,71.536 657.334,72.183 651.993,72.245C651.514,72.25 651.049,72.247 650.597,72.236L650.597,72.682C650.597,74.648 649.816,76.534 648.426,77.924C647.036,79.314 645.15,80.096 643.183,80.096L643.18,80.096C641.426,80.096 639.735,79.474 638.404,78.352C637.072,79.474 635.382,80.096 633.627,80.096L633.624,80.096C631.658,80.096 629.772,79.314 628.382,77.924C626.991,76.534 626.21,74.648 626.21,72.682L626.21,61.583C624.512,61.804 623.915,61.702 618.343,61.365C614.983,61.162 612.279,60.861 610.183,60.121C607.674,59.236 605.918,57.771 604.831,55.294C603.343,51.906 603.783,49.638 604.818,48.15C606.307,46.01 609.561,45.297 612.152,45.375C613.69,45.422 614.921,44.243 615.271,42.407C615.387,41.799 615.542,41.215 615.728,40.657L611.16,40.657C608.823,40.657 606.763,38.587 606.763,35.852C606.763,35.851 606.763,35.85 606.763,35.849C606.763,34.462 607.293,33.245 608.121,32.383C607.55,31.568 607.663,30.435 608.421,29.751C613.341,25.313 616.019,24.528 620.037,24.68C623.192,24.8 625.521,25.6 626.939,26.264ZM630.21,72.682C630.211,73.08 630.28,73.477 630.417,73.852C630.532,74.166 630.692,74.462 630.892,74.729C631.145,75.066 631.46,75.356 631.818,75.579C632.19,75.81 632.606,75.969 633.037,76.045C633.371,76.103 633.713,76.111 634.048,76.07C634.608,76 635.148,75.79 635.608,75.463C635.722,75.381 635.831,75.293 635.934,75.198C636.002,75.136 636.066,75.069 636.135,75.008L636.139,75.004C635.894,74.261 635.766,73.478 635.766,72.682L635.766,65.868C635.033,64.926 634.428,63.951 633.888,62.994C633.654,62.58 633.446,62.192 633.26,61.82C633.045,61.79 632.834,61.756 632.626,61.72C631.784,61.574 631.011,61.361 630.21,61.256L630.21,72.682ZM639.726,61.151C639.712,61.156 639.699,61.161 639.686,61.165L639.616,61.189L639.589,61.198C638.941,61.414 638.333,61.577 637.759,61.695C638.196,62.425 638.689,63.159 639.287,63.858C639.596,64.221 639.766,64.681 639.766,65.157C639.766,65.157 639.766,72.682 639.766,72.682C639.766,73.587 640.126,74.455 640.766,75.096C641.406,75.736 642.275,76.096 643.18,76.096L643.183,76.096C644.089,76.096 644.957,75.736 645.598,75.096C646.238,74.455 646.597,73.587 646.597,72.682L646.597,70.614C646.571,70.485 646.558,70.352 646.558,70.216L646.558,61.875C646.558,60.771 647.454,59.875 648.558,59.875C649.662,59.875 650.558,60.771 650.558,61.875L650.558,68.233C651.006,68.246 651.469,68.25 651.947,68.245C658.022,68.175 660.115,67.235 661.716,66.442L661.716,59.369C661.716,58.265 662.612,57.369 663.716,57.369C664.82,57.369 665.716,58.265 665.716,59.369L665.716,67.709C665.716,67.757 665.714,67.805 665.711,67.852L665.711,72.682C665.711,73.587 666.071,74.455 666.711,75.096C667.351,75.736 668.219,76.096 669.125,76.096L669.128,76.096C670.034,76.096 670.902,75.736 671.542,75.096C672.183,74.455 672.542,73.587 672.542,72.682L672.542,67.834C672.54,67.793 672.538,67.751 672.538,67.709L672.538,59.369C672.538,58.265 673.435,57.369 674.538,57.369C675.642,57.369 676.538,58.265 676.538,59.369L676.538,65.474C678.601,65.669 680.701,65.936 682.754,65.908C685.437,65.871 689.036,65.89 690.772,65.196C692.237,64.61 692.319,63.11 691.597,62.53C689.811,61.096 687.051,60.223 681.223,56.96C678.705,55.55 675.574,52.379 672.302,49.132C669.341,46.195 666.255,43.186 663.369,41.755C659.213,39.694 653.916,38.245 649.395,38.498C649.744,40.009 649.933,41.596 649.942,43.232C650.498,48.337 649.813,52.102 648.137,54.924C646.406,57.84 643.602,59.825 639.726,61.151ZM628.756,30.235C628.331,30.8 627.907,31.457 627.454,32.214C628.422,32.859 629.257,33.557 629.945,34.276C630.776,35.139 631.391,36.03 631.759,36.895C632.626,38.936 632.387,40.928 630.83,42.583L630.794,42.621L630.777,42.639C630.771,42.645 630.765,42.651 630.759,42.658C629.546,43.908 628.155,44.477 626.744,44.484L626.71,44.484C625.265,44.483 623.8,43.895 622.484,42.848C621.437,42.015 620.508,41.478 619.823,41.143C619.552,41.764 619.338,42.436 619.2,43.157C618.429,47.201 615.422,49.476 612.031,49.374C611.236,49.35 610.324,49.399 609.498,49.629C608.943,49.783 608.408,49.993 608.101,50.434C607.627,51.116 607.811,52.133 608.493,53.686C609.246,55.4 610.622,56.185 612.562,56.656C614.214,57.057 616.216,57.229 618.585,57.373C625.399,57.785 624.127,57.839 627.893,57.297C627.914,57.293 627.935,57.29 627.957,57.288C629.558,57.063 630.938,57.314 632.402,57.606C633.989,57.923 635.717,58.276 638.334,57.4L638.365,57.389L638.397,57.379L638.454,57.359C640.706,56.585 642.369,55.577 643.526,54.107C645.369,51.764 645.933,48.378 645.942,43.457C645.722,41.517 645.444,39.609 645.052,37.813C645.015,37.703 644.977,37.594 644.938,37.485C644.861,37.269 644.822,37.044 644.82,36.82C644.47,35.413 644.04,34.088 643.502,32.885C642.616,30.907 641.444,29.275 639.764,28.282C638.085,27.29 635.928,26.97 633.16,27.429C631.377,27.726 630.201,28.468 629.091,29.81C629.056,29.87 629.017,29.928 628.975,29.986C628.908,30.076 628.835,30.159 628.756,30.235ZM622.682,45.267C624.445,45.267 625.876,46.698 625.876,48.461C625.876,50.224 624.445,51.655 622.682,51.655C620.92,51.655 619.489,50.224 619.489,48.461C619.489,46.698 620.92,45.267 622.682,45.267ZM623.748,34.672C623.415,34.503 623.069,34.34 622.71,34.186C621.602,33.707 619.735,33.795 617.9,33.963C614.726,34.254 611.621,34.991 611.621,34.991C611.47,35.027 611.315,35.045 611.16,35.045C611.047,35.045 610.982,35.156 610.92,35.255C610.816,35.421 610.763,35.628 610.763,35.849C610.763,35.85 610.763,35.851 610.763,35.852C610.763,36.074 610.816,36.281 610.92,36.447C610.982,36.545 611.047,36.657 611.16,36.657L618.584,36.657C618.799,36.638 620.501,36.568 623.624,38.715L623.701,38.768L623.734,38.791L623.801,38.838L623.862,38.881C623.889,38.9 623.916,38.919 623.943,38.938L624.005,38.983L624.032,39.003C624.06,39.023 624.088,39.043 624.116,39.063L624.179,39.109L624.206,39.129C624.234,39.15 624.263,39.171 624.291,39.192L624.355,39.239L624.383,39.261C624.411,39.282 624.44,39.303 624.468,39.325L624.533,39.374L624.563,39.397C624.591,39.419 624.62,39.44 624.648,39.462L624.715,39.514L624.746,39.538C624.774,39.56 624.803,39.582 624.831,39.604L624.899,39.658L624.937,39.688L624.974,39.717C625.499,40.135 626.091,40.418 626.663,40.418L626.675,40.418C627.102,40.414 627.519,40.253 627.889,39.872L627.9,39.859C628.38,39.353 628.257,38.72 627.893,38.093C627.871,38.055 627.848,38.018 627.825,37.981C627.794,37.931 627.762,37.882 627.728,37.832C627.347,37.271 626.82,36.723 626.172,36.204C625.503,35.671 624.706,35.167 623.813,34.707C623.791,34.695 623.77,34.684 623.748,34.672ZM624.419,29.546C623.357,29.15 621.831,28.751 619.885,28.677C617.669,28.594 616.028,28.975 613.87,30.472C615.467,30.201 617.452,29.93 619.296,29.865C621.064,29.803 622.715,29.953 623.911,30.365C624.082,30.082 624.251,29.809 624.419,29.546Z"/></g></g></svg>